<?xml version="1.0" encoding="iso-8859-1"?>
<!-- Generator: Adobe Illustrator 19.0.0, SVG Export Plug-In . SVG Version: 6.00 Build 0)  -->
<svg version="1.1" id="Capa_1" xmlns="http://www.w3.org/2000/svg" xmlns:xlink="http://www.w3.org/1999/xlink" x="0px" y="0px"
	 viewBox="0 0 512 512" style="enable-background:new 0 0 512 512;" xml:space="preserve">
<path style="fill:#353535;" d="M512,256c0,141.385-114.615,256-256,256c-86.246,0-162.534-42.653-208.917-108.011
	c-14.566-20.522-26.185-43.29-34.22-67.678C4.514,311.056,0,284.056,0,256C0,114.615,114.615,0,256,0
	c60.562,0,116.203,21.023,160.037,56.184c8.955,7.178,17.418,14.942,25.328,23.249C485.136,125.356,512,187.549,512,256z"/>
<path style="fill:#F0EFEB;" d="M501.614,235.259c-2.079-28.745-19.749-49.81-47.376-57.417c-21.483-5.914-43.018-4.462-64.554-0.627
	c-20.773,3.699-40.281,11.118-59.82,21.797c0.543-2.926,0.752-4.775,1.243-6.541c6.928-24.921,19.895-46.519,36.697-65.923
	c20.135-23.259,43.415-40.929,73.561-47.114c3.584-0.742,7.272-1.317,11.055-1.714c12.1-1.285,24.2-4.263,31.514-15.924
	c4.765-7.596,2.978-11.786-6.081-12.643c-6.531-0.627-13.239-1.087-19.728-0.387c-14.399,1.546-28.432,4.023-42.088,7.419
	c-41.994,10.439-80.468,29.56-115.388,57.083c-26.645,21.002-47.438,46.926-61.241,76.936
	c-10.167-6.478-19.655-13.845-30.229-18.975c-21.232-10.313-44.283-13.019-67.647-12.852c-28.839,0.199-56.978,3.657-82.066,19.623
	c-31.493,20.041-38.097,62.506-12.957,90.039c8.892,9.738,20.187,17.596,31.326,24.879c14.66,9.592,30.407,17.502,45.359,26.666
	c8.704,5.329,15.872,12.622,17.732,23.207c4.744,27.073-23.134,54.345-48.964,50.176c-5.12-12.267-8.944-24.179-14.869-34.92
	c-8.735-15.83-22.528-25.192-41.085-26.843c-8.547-0.752-16.833,1.087-23.144,5.11c8.035,24.388,19.655,47.156,34.22,67.678
	c28.693,6.332,57.898,6.959,86.998,4.357c15.151-1.348,30.459-4.524,44.899-9.3c22.601-7.461,39.267-22.309,46.54-45.923
	c1.254-4.044,1.964-8.255,3.239-13.709c1.87,3.668,3.124,6.175,4.43,8.662c1.463,2.811,2.821,5.695,4.493,8.37
	c22.507,35.965,56.78,50.751,97.426,52.788c37.867,1.912,70.468-12.831,100.279-34.711
	C482.398,340.02,505.856,294.139,501.614,235.259z M218.718,291.401c-18.892-23.552-48.379-29.853-74.428-42.339
	c-7.21-3.459-14.326-7.335-20.919-11.839c-21.912-14.984-14.378-45.934,2.832-55.557c8.704-4.869,20.156-8.108,30.083-7.105
	c0.648,6.938,0.982,13.97,1.985,20.908c4.974,34.388,35.359,50.698,66.006,35.432C222.417,251.183,220.567,271.224,218.718,291.401z
	 M401.189,325.799c-6.29,21.744-15.559,42.088-33.228,57.334c-18.317,15.788-35.38,13.876-49.925-5.392
	c-11.212-14.848-18.244-38.954-17.91-61.367c0.637-30.25,8.495-57.793,30.542-79.767c9.216-9.185,20.02-15.653,33.593-15.485
	c17.502,0.209,31.336,10.052,37.825,27.178C411.888,274.192,408.607,300.157,401.189,325.799z"/>
<g>
</g>
<g>
</g>
<g>
</g>
<g>
</g>
<g>
</g>
<g>
</g>
<g>
</g>
<g>
</g>
<g>
</g>
<g>
</g>
<g>
</g>
<g>
</g>
<g>
</g>
<g>
</g>
<g>
</g>
</svg>
